<ttFont>
<head>
    <!-- Most of this table will be recalculated by the compiler -->
    <tableVersion value="1.0"/>
    <fontRevision value="1.0"/>
    <checkSumAdjustment value="0x4641d064"/>
    <magicNumber value="0x5f0f3cf5"/>
    <flags value="00000000 00000011"/>
    <unitsPerEm value="1000"/>
    <created value="Mon Jan  8 14:00:12 2018"/>
    <modified value="Tue Feb 26 11:53:02 2019"/>
    <xMin value="0"/>
    <yMin value="-28"/>
    <xMax value="820"/>
    <yMax value="742"/>
    <macStyle value="00000000 00000000"/>
    <lowestRecPPEM value="7"/>
    <fontDirectionHint value="2"/>
    <indexToLocFormat value="0"/>
    <glyphDataFormat value="0"/>
  </head>
    <TTGlyph name=".notdef" xMin="30" yMin="-28" xMax="800" yMax="742">
      <contour>
        <pt x="30" y="-28" on="0"/>
        <pt x="30" y="94" on="1"/>
        <pt x="30" y="620" on="1"/>
        <pt x="30" y="742" on="0"/>
        <pt x="151" y="742" on="1"/>
        <pt x="678" y="742" on="1"/>
        <pt x="800" y="742" on="0"/>
        <pt x="800" y="620" on="1"/>
        <pt x="800" y="94" on="1"/>
        <pt x="800" y="-28" on="0"/>
        <pt x="678" y="-28" on="1"/>
        <pt x="151" y="-28" on="1"/>
      </contour>
      <contour>
        <pt x="678" y="2" on="1"/>
        <pt x="726" y="2" on="0"/>
        <pt x="770" y="46" on="0"/>
        <pt x="770" y="94" on="1"/>
        <pt x="770" y="620" on="1"/>
        <pt x="770" y="668" on="0"/>
        <pt x="726" y="712" on="0"/>
        <pt x="678" y="712" on="1"/>
        <pt x="151" y="712" on="1"/>
        <pt x="104" y="712" on="0"/>
        <pt x="60" y="668" on="0"/>
        <pt x="60" y="620" on="1"/>
        <pt x="60" y="94" on="1"/>
        <pt x="60" y="46" on="0"/>
        <pt x="104" y="2" on="0"/>
        <pt x="151" y="2" on="1"/>
      </contour>
    </TTGlyph>
    <TTGlyph name="A" xMin="30" yMin="-28" xMax="800" yMax="742">
      <contour>
        <pt x="30" y="-28" on="0"/>
        <pt x="30" y="94" on="1"/>
        <pt x="30" y="620" on="1"/>
        <pt x="30" y="742" on="0"/>
        <pt x="151" y="742" on="1"/>
        <pt x="678" y="742" on="1"/>
        <pt x="800" y="742" on="0"/>
        <pt x="800" y="620" on="1"/>
        <pt x="800" y="94" on="1"/>
        <pt x="800" y="-28" on="0"/>
        <pt x="678" y="-28" on="1"/>
        <pt x="151" y="-28" on="1"/>
      </contour>
      <contour>
        <pt x="333" y="163" on="1"/>
        <pt x="353" y="236" on="1"/>
        <pt x="479" y="236" on="1"/>
        <pt x="498" y="163" on="1"/>
        <pt x="613" y="163" on="1"/>
        <pt x="485" y="552" on="1"/>
        <pt x="345" y="552" on="1"/>
        <pt x="218" y="163" on="1"/>
      </contour>
      <contour>
        <pt x="391" y="386" on="1"/>
        <pt x="409" y="454" on="0"/>
        <pt x="415" y="491" on="1"/>
        <pt x="419" y="468" on="0"/>
        <pt x="434" y="411" on="1"/>
        <pt x="440" y="386" on="1"/>
        <pt x="457" y="322" on="1"/>
        <pt x="375" y="322" on="1"/>
      </contour>
    </TTGlyph>
    <TTGlyph name="B" xMin="30" yMin="-28" xMax="800" yMax="742">
      <contour>
        <pt x="30" y="-28" on="0"/>
        <pt x="30" y="94" on="1"/>
        <pt x="30" y="620" on="1"/>
        <pt x="30" y="742" on="0"/>
        <pt x="151" y="742" on="1"/>
        <pt x="678" y="742" on="1"/>
        <pt x="800" y="742" on="0"/>
        <pt x="800" y="620" on="1"/>
        <pt x="800" y="94" on="1"/>
        <pt x="800" y="-28" on="0"/>
        <pt x="678" y="-28" on="1"/>
        <pt x="151" y="-28" on="1"/>
      </contour>
      <contour>
        <pt x="439" y="163" on="1"/>
        <pt x="508" y="163" on="0"/>
        <pt x="587" y="224" on="0"/>
        <pt x="587" y="277" on="1"/>
        <pt x="587" y="319" on="0"/>
        <pt x="548" y="359" on="0"/>
        <pt x="518" y="366" on="1"/>
        <pt x="518" y="369" on="1"/>
        <pt x="544" y="376" on="0"/>
        <pt x="579" y="419" on="0"/>
        <pt x="579" y="454" on="1"/>
        <pt x="579" y="502" on="0"/>
        <pt x="506" y="550" on="0"/>
        <pt x="424" y="550" on="1"/>
        <pt x="289" y="550" on="1"/>
        <pt x="289" y="163" on="1"/>
      </contour>
      <contour>
        <pt x="393" y="472" on="1"/>
        <pt x="423" y="472" on="1"/>
        <pt x="472" y="472" on="0"/>
        <pt x="472" y="439" on="1"/>
        <pt x="472" y="422" on="0"/>
        <pt x="450" y="402" on="0"/>
        <pt x="425" y="402" on="1"/>
        <pt x="393" y="402" on="1"/>
      </contour>
      <contour>
        <pt x="393" y="326" on="1"/>
        <pt x="429" y="326" on="1"/>
        <pt x="455" y="326" on="0"/>
        <pt x="479" y="303" on="0"/>
        <pt x="479" y="285" on="1"/>
        <pt x="479" y="244" on="0"/>
        <pt x="430" y="244" on="1"/>
        <pt x="393" y="244" on="1"/>
      </contour>
    </TTGlyph>
    <TTGlyph name="C" xMin="30" yMin="-28" xMax="800" yMax="742">
      <contour>
        <pt x="30" y="-28" on="0"/>
        <pt x="30" y="94" on="1"/>
        <pt x="30" y="620" on="1"/>
        <pt x="30" y="742" on="0"/>
        <pt x="151" y="742" on="1"/>
        <pt x="678" y="742" on="1"/>
        <pt x="800" y="742" on="0"/>
        <pt x="800" y="620" on="1"/>
        <pt x="800" y="94" on="1"/>
        <pt x="800" y="-28" on="0"/>
        <pt x="678" y="-28" on="1"/>
        <pt x="151" y="-28" on="1"/>
      </contour>
      <contour>
        <pt x="485" y="158" on="0"/>
        <pt x="533" y="180" on="1"/>
        <pt x="533" y="267" on="1"/>
        <pt x="498" y="254" on="0"/>
        <pt x="457" y="243" on="0"/>
        <pt x="434" y="243" on="1"/>
        <pt x="349" y="243" on="0"/>
        <pt x="349" y="355" on="1"/>
        <pt x="349" y="409" on="0"/>
        <pt x="391" y="471" on="0"/>
        <pt x="428" y="471" on="1"/>
        <pt x="451" y="471" on="0"/>
        <pt x="491" y="459" on="0"/>
        <pt x="518" y="447" on="1"/>
        <pt x="550" y="529" on="1"/>
        <pt x="491" y="557" on="0"/>
        <pt x="429" y="557" on="1"/>
        <pt x="341" y="557" on="0"/>
        <pt x="241" y="446" on="0"/>
        <pt x="241" y="356" on="1"/>
        <pt x="241" y="264" on="0"/>
        <pt x="331" y="158" on="0"/>
        <pt x="424" y="158" on="1"/>
      </contour>
    </TTGlyph>
    <TTGlyph name="D" xMin="30" yMin="-28" xMax="800" yMax="742">
      <contour>
        <pt x="30" y="-28" on="0"/>
        <pt x="30" y="94" on="1"/>
        <pt x="30" y="620" on="1"/>
        <pt x="30" y="742" on="0"/>
        <pt x="151" y="742" on="1"/>
        <pt x="678" y="742" on="1"/>
        <pt x="800" y="742" on="0"/>
        <pt x="800" y="620" on="1"/>
        <pt x="800" y="94" on="1"/>
        <pt x="800" y="-28" on="0"/>
        <pt x="678" y="-28" on="1"/>
        <pt x="151" y="-28" on="1"/>
      </contour>
      <contour>
        <pt x="398" y="163" on="1"/>
        <pt x="493" y="163" on="0"/>
        <pt x="602" y="267" on="0"/>
        <pt x="602" y="365" on="1"/>
        <pt x="602" y="455" on="0"/>
        <pt x="500" y="550" on="0"/>
        <pt x="406" y="550" on="1"/>
        <pt x="271" y="550" on="1"/>
        <pt x="271" y="163" on="1"/>
      </contour>
      <contour>
        <pt x="377" y="466" on="1"/>
        <pt x="407" y="466" on="1"/>
        <pt x="450" y="466" on="0"/>
        <pt x="492" y="415" on="0"/>
        <pt x="492" y="362" on="1"/>
        <pt x="492" y="304" on="0"/>
        <pt x="448" y="249" on="0"/>
        <pt x="400" y="249" on="1"/>
        <pt x="377" y="249" on="1"/>
      </contour>
    </TTGlyph>
    <TTGlyph name="E" xMin="30" yMin="-28" xMax="800" yMax="742">
      <contour>
        <pt x="30" y="-28" on="0"/>
        <pt x="30" y="94" on="1"/>
        <pt x="30" y="620" on="1"/>
        <pt x="30" y="742" on="0"/>
        <pt x="151" y="742" on="1"/>
        <pt x="678" y="742" on="1"/>
        <pt x="800" y="742" on="0"/>
        <pt x="800" y="620" on="1"/>
        <pt x="800" y="94" on="1"/>
        <pt x="800" y="-28" on="0"/>
        <pt x="678" y="-28" on="1"/>
        <pt x="151" y="-28" on="1"/>
      </contour>
      <contour>
        <pt x="533" y="163" on="1"/>
        <pt x="533" y="249" on="1"/>
        <pt x="409" y="249" on="1"/>
        <pt x="409" y="321" on="1"/>
        <pt x="525" y="321" on="1"/>
        <pt x="525" y="405" on="1"/>
        <pt x="409" y="405" on="1"/>
        <pt x="409" y="467" on="1"/>
        <pt x="533" y="467" on="1"/>
        <pt x="533" y="550" on="1"/>
        <pt x="303" y="550" on="1"/>
        <pt x="303" y="163" on="1"/>
      </contour>
    </TTGlyph>
    <TTGlyph name="F" xMin="30" yMin="-28" xMax="800" yMax="742">
      <contour>
        <pt x="30" y="-28" on="0"/>
        <pt x="30" y="94" on="1"/>
        <pt x="30" y="620" on="1"/>
        <pt x="30" y="742" on="0"/>
        <pt x="151" y="742" on="1"/>
        <pt x="678" y="742" on="1"/>
        <pt x="800" y="742" on="0"/>
        <pt x="800" y="620" on="1"/>
        <pt x="800" y="94" on="1"/>
        <pt x="800" y="-28" on="0"/>
        <pt x="678" y="-28" on="1"/>
        <pt x="151" y="-28" on="1"/>
      </contour>
      <contour>
        <pt x="405" y="163" on="1"/>
        <pt x="405" y="309" on="1"/>
        <pt x="521" y="309" on="1"/>
        <pt x="521" y="393" on="1"/>
        <pt x="405" y="393" on="1"/>
        <pt x="405" y="467" on="1"/>
        <pt x="530" y="467" on="1"/>
        <pt x="530" y="550" on="1"/>
        <pt x="301" y="550" on="1"/>
        <pt x="301" y="163" on="1"/>
      </contour>
    </TTGlyph>
    <TTGlyph name="P" xMin="47" yMin="170" xMax="306" yMax="527">
      <contour>
        <pt x="47" y="527" on="1"/>
        <pt x="171" y="527" on="1"/>
        <pt x="238" y="527" on="0"/>
        <pt x="306" y="469" on="0"/>
        <pt x="306" y="414" on="1"/>
        <pt x="306" y="360" on="0"/>
        <pt x="242" y="289" on="0"/>
        <pt x="171" y="289" on="1"/>
        <pt x="144" y="289" on="1"/>
        <pt x="144" y="170" on="1"/>
        <pt x="47" y="170" on="1"/>
      </contour>
      <contour>
        <pt x="163" y="367" on="1"/>
        <pt x="184" y="367" on="0"/>
        <pt x="210" y="388" on="0"/>
        <pt x="210" y="411" on="1"/>
        <pt x="210" y="429" on="0"/>
        <pt x="189" y="449" on="0"/>
        <pt x="169" y="449" on="1"/>
        <pt x="144" y="449" on="1"/>
        <pt x="144" y="367" on="1"/>
      </contour>
    </TTGlyph>
    <TTGlyph name="Q" xMin="11" yMin="90" xMax="368" yMax="538">
      <contour>
        <pt x="188" y="170" on="1"/>
        <pt x="185" y="170" on="1"/>
        <pt x="98" y="170" on="0"/>
        <pt x="11" y="268" on="0"/>
        <pt x="11" y="355" on="1"/>
        <pt x="11" y="441" on="0"/>
        <pt x="98" y="538" on="0"/>
        <pt x="185" y="538" on="1"/>
        <pt x="273" y="538" on="0"/>
        <pt x="358" y="441" on="0"/>
        <pt x="358" y="354" on="1"/>
        <pt x="358" y="232" on="0"/>
        <pt x="281" y="190" on="1"/>
        <pt x="368" y="90" on="1"/>
        <pt x="248" y="90" on="1"/>
      </contour>
      <contour>
        <pt x="223" y="250" on="0"/>
        <pt x="257" y="304" on="0"/>
        <pt x="257" y="354" on="1"/>
        <pt x="257" y="405" on="0"/>
        <pt x="223" y="459" on="0"/>
        <pt x="185" y="459" on="1"/>
        <pt x="113" y="459" on="0"/>
        <pt x="113" y="354" on="1"/>
        <pt x="113" y="250" on="0"/>
        <pt x="185" y="250" on="1"/>
      </contour>
    </TTGlyph>
    <TTGlyph name="R" xMin="37" yMin="170" xMax="343" yMax="527">
      <contour>
        <pt x="37" y="527" on="1"/>
        <pt x="154" y="527" on="1"/>
        <pt x="227" y="527" on="0"/>
        <pt x="300" y="474" on="0"/>
        <pt x="300" y="422" on="1"/>
        <pt x="300" y="360" on="0"/>
        <pt x="239" y="326" on="1"/>
        <pt x="343" y="170" on="1"/>
        <pt x="234" y="170" on="1"/>
        <pt x="158" y="300" on="1"/>
        <pt x="134" y="300" on="1"/>
        <pt x="134" y="170" on="1"/>
        <pt x="37" y="170" on="1"/>
      </contour>
      <contour>
        <pt x="152" y="373" on="1"/>
        <pt x="202" y="373" on="0"/>
        <pt x="202" y="417" on="1"/>
        <pt x="202" y="454" on="0"/>
        <pt x="153" y="454" on="1"/>
        <pt x="134" y="454" on="1"/>
        <pt x="134" y="373" on="1"/>
      </contour>
    </TTGlyph>
    <TTGlyph name="X" xMin="2" yMin="170" xMax="361" yMax="527">
      <contour>
        <pt x="121" y="353" on="1"/>
        <pt x="9" y="527" on="1"/>
        <pt x="116" y="527" on="1"/>
        <pt x="181" y="417" on="1"/>
        <pt x="243" y="527" on="1"/>
        <pt x="353" y="527" on="1"/>
        <pt x="240" y="345" on="1"/>
        <pt x="361" y="170" on="1"/>
        <pt x="250" y="170" on="1"/>
        <pt x="180" y="282" on="1"/>
        <pt x="111" y="170" on="1"/>
        <pt x="2" y="170" on="1"/>
      </contour>
    </TTGlyph>
    <TTGlyph name="Y" xMin="0" yMin="170" xMax="332" yMax="527">
      <contour>
        <pt x="118" y="307" on="1"/>
        <pt x="0" y="527" on="1"/>
        <pt x="105" y="527" on="1"/>
        <pt x="166" y="395" on="1"/>
        <pt x="228" y="527" on="1"/>
        <pt x="332" y="527" on="1"/>
        <pt x="215" y="310" on="1"/>
        <pt x="215" y="170" on="1"/>
        <pt x="118" y="170" on="1"/>
      </contour>
    </TTGlyph>
    <TTGlyph name="Z" xMin="30" yMin="170" xMax="308" yMax="527">
      <contour>
        <pt x="30" y="230" on="1"/>
        <pt x="185" y="449" on="1"/>
        <pt x="34" y="449" on="1"/>
        <pt x="34" y="527" on="1"/>
        <pt x="304" y="527" on="1"/>
        <pt x="304" y="468" on="1"/>
        <pt x="150" y="248" on="1"/>
        <pt x="308" y="248" on="1"/>
        <pt x="308" y="170" on="1"/>
        <pt x="30" y="170" on="1"/>
      </contour>
    </TTGlyph>
    <TTGlyph name="eight" xMin="50" yMin="-28" xMax="820" yMax="742">
      <contour>
        <pt x="50" y="-28" on="0"/>
        <pt x="50" y="94" on="1"/>
        <pt x="50" y="620" on="1"/>
        <pt x="50" y="742" on="0"/>
        <pt x="171" y="742" on="1"/>
        <pt x="698" y="742" on="1"/>
        <pt x="820" y="742" on="0"/>
        <pt x="820" y="620" on="1"/>
        <pt x="820" y="94" on="1"/>
        <pt x="820" y="-28" on="0"/>
        <pt x="698" y="-28" on="1"/>
        <pt x="171" y="-28" on="1"/>
      </contour>
      <contour>
        <pt x="503" y="177" on="0"/>
        <pt x="567" y="230" on="0"/>
        <pt x="567" y="275" on="1"/>
        <pt x="567" y="307" on="0"/>
        <pt x="529" y="349" on="0"/>
        <pt x="497" y="367" on="1"/>
        <pt x="556" y="394" on="0"/>
        <pt x="556" y="452" on="1"/>
        <pt x="556" y="494" on="0"/>
        <pt x="494" y="537" on="0"/>
        <pt x="440" y="537" on="1"/>
        <pt x="386" y="537" on="0"/>
        <pt x="322" y="494" on="0"/>
        <pt x="322" y="452" on="1"/>
        <pt x="322" y="400" on="0"/>
        <pt x="374" y="365" on="1"/>
        <pt x="343" y="349" on="0"/>
        <pt x="311" y="308" on="0"/>
        <pt x="311" y="275" on="1"/>
        <pt x="311" y="229" on="0"/>
        <pt x="374" y="177" on="0"/>
        <pt x="439" y="177" on="1"/>
      </contour>
      <contour>
        <pt x="411" y="422" on="0"/>
        <pt x="411" y="444" on="1"/>
        <pt x="411" y="455" on="0"/>
        <pt x="427" y="469" on="0"/>
        <pt x="439" y="469" on="1"/>
        <pt x="451" y="469" on="0"/>
        <pt x="468" y="455" on="0"/>
        <pt x="468" y="444" on="1"/>
        <pt x="468" y="431" on="0"/>
        <pt x="452" y="415" on="0"/>
        <pt x="438" y="408" on="1"/>
      </contour>
      <contour>
        <pt x="420" y="245" on="0"/>
        <pt x="398" y="263" on="0"/>
        <pt x="398" y="278" on="1"/>
        <pt x="398" y="293" on="0"/>
        <pt x="419" y="315" on="0"/>
        <pt x="438" y="325" on="1"/>
        <pt x="444" y="321" on="1"/>
        <pt x="480" y="299" on="0"/>
        <pt x="480" y="276" on="1"/>
        <pt x="480" y="245" on="0"/>
        <pt x="438" y="245" on="1"/>
      </contour>
    </TTGlyph>
    <TTGlyph name="five" xMin="50" yMin="-28" xMax="820" yMax="742">
      <contour>
        <pt x="50" y="-28" on="0"/>
        <pt x="50" y="94" on="1"/>
        <pt x="50" y="620" on="1"/>
        <pt x="50" y="742" on="0"/>
        <pt x="171" y="742" on="1"/>
        <pt x="698" y="742" on="1"/>
        <pt x="820" y="742" on="0"/>
        <pt x="820" y="620" on="1"/>
        <pt x="820" y="94" on="1"/>
        <pt x="820" y="-28" on="0"/>
        <pt x="698" y="-28" on="1"/>
        <pt x="171" y="-28" on="1"/>
      </contour>
      <contour>
        <pt x="503" y="174" on="0"/>
        <pt x="575" y="236" on="0"/>
        <pt x="575" y="296" on="1"/>
        <pt x="575" y="348" on="0"/>
        <pt x="514" y="409" on="0"/>
        <pt x="469" y="409" on="1"/>
        <pt x="452" y="409" on="0"/>
        <pt x="431" y="405" on="0"/>
        <pt x="427" y="405" on="1"/>
        <pt x="432" y="451" on="1"/>
        <pt x="550" y="451" on="1"/>
        <pt x="550" y="530" on="1"/>
        <pt x="351" y="530" on="1"/>
        <pt x="338" y="344" on="1"/>
        <pt x="372" y="328" on="1"/>
        <pt x="402" y="335" on="0"/>
        <pt x="421" y="335" on="1"/>
        <pt x="449" y="335" on="0"/>
        <pt x="479" y="313" on="0"/>
        <pt x="479" y="293" on="1"/>
        <pt x="479" y="271" on="0"/>
        <pt x="450" y="249" on="0"/>
        <pt x="424" y="249" on="1"/>
        <pt x="404" y="249" on="0"/>
        <pt x="353" y="262" on="0"/>
        <pt x="331" y="271" on="1"/>
        <pt x="331" y="194" on="1"/>
        <pt x="370" y="174" on="0"/>
        <pt x="433" y="174" on="1"/>
      </contour>
    </TTGlyph>
    <TTGlyph name="four" xMin="50" yMin="-28" xMax="820" yMax="742">
      <contour>
        <pt x="50" y="-28" on="0"/>
        <pt x="50" y="94" on="1"/>
        <pt x="50" y="620" on="1"/>
        <pt x="50" y="742" on="0"/>
        <pt x="171" y="742" on="1"/>
        <pt x="698" y="742" on="1"/>
        <pt x="820" y="742" on="0"/>
        <pt x="820" y="620" on="1"/>
        <pt x="820" y="94" on="1"/>
        <pt x="820" y="-28" on="0"/>
        <pt x="698" y="-28" on="1"/>
        <pt x="171" y="-28" on="1"/>
      </contour>
      <contour>
        <pt x="522" y="182" on="1"/>
        <pt x="522" y="249" on="1"/>
        <pt x="560" y="249" on="1"/>
        <pt x="560" y="320" on="1"/>
        <pt x="522" y="320" on="1"/>
        <pt x="522" y="532" on="1"/>
        <pt x="434" y="532" on="1"/>
        <pt x="288" y="319" on="1"/>
        <pt x="288" y="249" on="1"/>
        <pt x="428" y="249" on="1"/>
        <pt x="428" y="182" on="1"/>
      </contour>
      <contour>
        <pt x="407" y="377" on="1"/>
        <pt x="421" y="398" on="0"/>
        <pt x="427" y="413" on="1"/>
        <pt x="430" y="413" on="1"/>
        <pt x="428" y="399" on="0"/>
        <pt x="428" y="361" on="1"/>
        <pt x="428" y="320" on="1"/>
        <pt x="370" y="320" on="1"/>
      </contour>
    </TTGlyph>
    <TTGlyph name="nine" xMin="50" yMin="-28" xMax="820" yMax="742">
      <contour>
        <pt x="50" y="-28" on="0"/>
        <pt x="50" y="94" on="1"/>
        <pt x="50" y="620" on="1"/>
        <pt x="50" y="742" on="0"/>
        <pt x="171" y="742" on="1"/>
        <pt x="698" y="742" on="1"/>
        <pt x="820" y="742" on="0"/>
        <pt x="820" y="620" on="1"/>
        <pt x="820" y="94" on="1"/>
        <pt x="820" y="-28" on="0"/>
        <pt x="698" y="-28" on="1"/>
        <pt x="171" y="-28" on="1"/>
      </contour>
      <contour>
        <pt x="486" y="177" on="0"/>
        <pt x="573" y="271" on="0"/>
        <pt x="573" y="371" on="1"/>
        <pt x="573" y="454" on="0"/>
        <pt x="498" y="535" on="0"/>
        <pt x="438" y="535" on="1"/>
        <pt x="380" y="535" on="0"/>
        <pt x="313" y="469" on="0"/>
        <pt x="313" y="411" on="1"/>
        <pt x="313" y="357" on="0"/>
        <pt x="366" y="297" on="0"/>
        <pt x="410" y="297" on="1"/>
        <pt x="442" y="297" on="0"/>
        <pt x="473" y="317" on="0"/>
        <pt x="484" y="337" on="1"/>
        <pt x="487" y="337" on="1"/>
        <pt x="484" y="298" on="0"/>
        <pt x="436" y="250" on="0"/>
        <pt x="378" y="250" on="1"/>
        <pt x="366" y="250" on="0"/>
        <pt x="336" y="254" on="1"/>
        <pt x="336" y="179" on="1"/>
        <pt x="351" y="177" on="0"/>
        <pt x="386" y="177" on="1"/>
      </contour>
      <contour>
        <pt x="423" y="369" on="0"/>
        <pt x="405" y="392" on="0"/>
        <pt x="405" y="412" on="1"/>
        <pt x="405" y="436" on="0"/>
        <pt x="424" y="459" on="0"/>
        <pt x="440" y="459" on="1"/>
        <pt x="457" y="459" on="0"/>
        <pt x="477" y="428" on="0"/>
        <pt x="477" y="408" on="1"/>
        <pt x="477" y="393" on="0"/>
        <pt x="456" y="369" on="0"/>
        <pt x="440" y="369" on="1"/>
      </contour>
    </TTGlyph>
    <TTGlyph name="one" xMin="50" yMin="-28" xMax="820" yMax="742">
      <contour>
        <pt x="50" y="-28" on="0"/>
        <pt x="50" y="94" on="1"/>
        <pt x="50" y="620" on="1"/>
        <pt x="50" y="742" on="0"/>
        <pt x="171" y="742" on="1"/>
        <pt x="698" y="742" on="1"/>
        <pt x="820" y="742" on="0"/>
        <pt x="820" y="620" on="1"/>
        <pt x="820" y="94" on="1"/>
        <pt x="820" y="-28" on="0"/>
        <pt x="698" y="-28" on="1"/>
        <pt x="171" y="-28" on="1"/>
      </contour>
      <contour>
        <pt x="507" y="181" on="1"/>
        <pt x="507" y="532" on="1"/>
        <pt x="423" y="532" on="1"/>
        <pt x="302" y="434" on="1"/>
        <pt x="351" y="374" on="1"/>
        <pt x="359" y="380" on="0"/>
        <pt x="384" y="397" on="0"/>
        <pt x="391" y="405" on="1"/>
        <pt x="403" y="419" on="0"/>
        <pt x="413" y="429" on="1"/>
        <pt x="412" y="403" on="0"/>
        <pt x="412" y="355" on="1"/>
        <pt x="412" y="181" on="1"/>
      </contour>
    </TTGlyph>
    <TTGlyph name="one_five" xMin="50" yMin="-28" xMax="820" yMax="742">
      <contour>
        <pt x="50" y="-28" on="0"/>
        <pt x="50" y="94" on="1"/>
        <pt x="50" y="620" on="1"/>
        <pt x="50" y="742" on="0"/>
        <pt x="171" y="742" on="1"/>
        <pt x="698" y="742" on="1"/>
        <pt x="820" y="742" on="0"/>
        <pt x="820" y="620" on="1"/>
        <pt x="820" y="94" on="1"/>
        <pt x="820" y="-28" on="0"/>
        <pt x="698" y="-28" on="1"/>
        <pt x="171" y="-28" on="1"/>
      </contour>
      <contour>
        <pt x="383" y="181" on="1"/>
        <pt x="383" y="532" on="1"/>
        <pt x="298" y="532" on="1"/>
        <pt x="177" y="434" on="1"/>
        <pt x="227" y="374" on="1"/>
        <pt x="235" y="380" on="0"/>
        <pt x="259" y="398" on="0"/>
        <pt x="267" y="406" on="1"/>
        <pt x="289" y="429" on="1"/>
        <pt x="287" y="404" on="0"/>
        <pt x="287" y="355" on="1"/>
        <pt x="287" y="181" on="1"/>
      </contour>
      <contour>
        <pt x="603" y="174" on="0"/>
        <pt x="675" y="236" on="0"/>
        <pt x="675" y="296" on="1"/>
        <pt x="675" y="348" on="0"/>
        <pt x="614" y="409" on="0"/>
        <pt x="569" y="409" on="1"/>
        <pt x="552" y="409" on="0"/>
        <pt x="531" y="405" on="0"/>
        <pt x="527" y="405" on="1"/>
        <pt x="532" y="451" on="1"/>
        <pt x="650" y="451" on="1"/>
        <pt x="650" y="530" on="1"/>
        <pt x="451" y="530" on="1"/>
        <pt x="438" y="344" on="1"/>
        <pt x="472" y="328" on="1"/>
        <pt x="502" y="335" on="0"/>
        <pt x="521" y="335" on="1"/>
        <pt x="549" y="335" on="0"/>
        <pt x="579" y="313" on="0"/>
        <pt x="579" y="293" on="1"/>
        <pt x="579" y="271" on="0"/>
        <pt x="550" y="249" on="0"/>
        <pt x="524" y="249" on="1"/>
        <pt x="504" y="249" on="0"/>
        <pt x="453" y="262" on="0"/>
        <pt x="431" y="271" on="1"/>
        <pt x="431" y="194" on="1"/>
        <pt x="470" y="174" on="0"/>
        <pt x="533" y="174" on="1"/>
      </contour>
    </TTGlyph>
    <TTGlyph name="one_four" xMin="50" yMin="-28" xMax="820" yMax="742">
      <contour>
        <pt x="50" y="-28" on="0"/>
        <pt x="50" y="94" on="1"/>
        <pt x="50" y="620" on="1"/>
        <pt x="50" y="742" on="0"/>
        <pt x="171" y="742" on="1"/>
        <pt x="698" y="742" on="1"/>
        <pt x="820" y="742" on="0"/>
        <pt x="820" y="620" on="1"/>
        <pt x="820" y="94" on="1"/>
        <pt x="820" y="-28" on="0"/>
        <pt x="698" y="-28" on="1"/>
        <pt x="171" y="-28" on="1"/>
      </contour>
      <contour>
        <pt x="368" y="181" on="1"/>
        <pt x="368" y="532" on="1"/>
        <pt x="283" y="532" on="1"/>
        <pt x="162" y="434" on="1"/>
        <pt x="211" y="374" on="1"/>
        <pt x="240" y="396" on="1"/>
        <pt x="265" y="416" on="0"/>
        <pt x="273" y="429" on="1"/>
        <pt x="272" y="403" on="0"/>
        <pt x="272" y="355" on="1"/>
        <pt x="272" y="181" on="1"/>
      </contour>
      <contour>
        <pt x="632" y="182" on="1"/>
        <pt x="632" y="249" on="1"/>
        <pt x="670" y="249" on="1"/>
        <pt x="670" y="320" on="1"/>
        <pt x="632" y="320" on="1"/>
        <pt x="632" y="532" on="1"/>
        <pt x="544" y="532" on="1"/>
        <pt x="398" y="319" on="1"/>
        <pt x="398" y="249" on="1"/>
        <pt x="538" y="249" on="1"/>
        <pt x="538" y="182" on="1"/>
      </contour>
      <contour>
        <pt x="517" y="377" on="1"/>
        <pt x="531" y="398" on="0"/>
        <pt x="537" y="413" on="1"/>
        <pt x="540" y="413" on="1"/>
        <pt x="538" y="399" on="0"/>
        <pt x="538" y="361" on="1"/>
        <pt x="538" y="320" on="1"/>
        <pt x="480" y="320" on="1"/>
      </contour>
    </TTGlyph>
    <TTGlyph name="one_one" xMin="50" yMin="-28" xMax="820" yMax="742">
      <contour>
        <pt x="50" y="-28" on="0"/>
        <pt x="50" y="94" on="1"/>
        <pt x="50" y="620" on="1"/>
        <pt x="50" y="742" on="0"/>
        <pt x="171" y="742" on="1"/>
        <pt x="698" y="742" on="1"/>
        <pt x="820" y="742" on="0"/>
        <pt x="820" y="620" on="1"/>
        <pt x="820" y="94" on="1"/>
        <pt x="820" y="-28" on="0"/>
        <pt x="698" y="-28" on="1"/>
        <pt x="171" y="-28" on="1"/>
      </contour>
      <contour>
        <pt x="397" y="181" on="1"/>
        <pt x="397" y="532" on="1"/>
        <pt x="313" y="532" on="1"/>
        <pt x="192" y="434" on="1"/>
        <pt x="241" y="374" on="1"/>
        <pt x="249" y="380" on="0"/>
        <pt x="274" y="397" on="0"/>
        <pt x="281" y="405" on="1"/>
        <pt x="293" y="419" on="0"/>
        <pt x="303" y="429" on="1"/>
        <pt x="302" y="403" on="0"/>
        <pt x="302" y="355" on="1"/>
        <pt x="302" y="181" on="1"/>
      </contour>
      <contour>
        <pt x="639" y="181" on="1"/>
        <pt x="639" y="532" on="1"/>
        <pt x="555" y="532" on="1"/>
        <pt x="434" y="434" on="1"/>
        <pt x="483" y="374" on="1"/>
        <pt x="491" y="380" on="0"/>
        <pt x="516" y="397" on="0"/>
        <pt x="523" y="405" on="1"/>
        <pt x="535" y="419" on="0"/>
        <pt x="545" y="429" on="1"/>
        <pt x="544" y="403" on="0"/>
        <pt x="544" y="355" on="1"/>
        <pt x="544" y="181" on="1"/>
      </contour>
    </TTGlyph>
    <TTGlyph name="one_three" xMin="50" yMin="-28" xMax="820" yMax="742">
      <contour>
        <pt x="50" y="-28" on="0"/>
        <pt x="50" y="94" on="1"/>
        <pt x="50" y="620" on="1"/>
        <pt x="50" y="742" on="0"/>
        <pt x="171" y="742" on="1"/>
        <pt x="698" y="742" on="1"/>
        <pt x="820" y="742" on="0"/>
        <pt x="820" y="620" on="1"/>
        <pt x="820" y="94" on="1"/>
        <pt x="820" y="-28" on="0"/>
        <pt x="698" y="-28" on="1"/>
        <pt x="171" y="-28" on="1"/>
      </contour>
      <contour>
        <pt x="605" y="177" on="0"/>
        <pt x="679" y="236" on="0"/>
        <pt x="679" y="282" on="1"/>
        <pt x="679" y="354" on="0"/>
        <pt x="591" y="365" on="1"/>
        <pt x="591" y="367" on="1"/>
        <pt x="625" y="376" on="0"/>
        <pt x="668" y="421" on="0"/>
        <pt x="668" y="456" on="1"/>
        <pt x="668" y="494" on="0"/>
        <pt x="606" y="537" on="0"/>
        <pt x="552" y="537" on="1"/>
        <pt x="510" y="537" on="0"/>
        <pt x="453" y="519" on="0"/>
        <pt x="428" y="502" on="1"/>
        <pt x="468" y="438" on="1"/>
        <pt x="478" y="446" on="0"/>
        <pt x="516" y="461" on="0"/>
        <pt x="537" y="461" on="1"/>
        <pt x="555" y="461" on="0"/>
        <pt x="576" y="447" on="0"/>
        <pt x="576" y="434" on="1"/>
        <pt x="576" y="397" on="0"/>
        <pt x="504" y="397" on="1"/>
        <pt x="482" y="397" on="1"/>
        <pt x="482" y="326" on="1"/>
        <pt x="504" y="326" on="1"/>
        <pt x="546" y="326" on="0"/>
        <pt x="579" y="307" on="0"/>
        <pt x="579" y="288" on="1"/>
        <pt x="579" y="251" on="0"/>
        <pt x="518" y="251" on="1"/>
        <pt x="475" y="251" on="0"/>
        <pt x="427" y="275" on="1"/>
        <pt x="427" y="195" on="1"/>
        <pt x="453" y="186" on="0"/>
        <pt x="500" y="177" on="0"/>
        <pt x="532" y="177" on="1"/>
      </contour>
      <contour>
        <pt x="383" y="181" on="1"/>
        <pt x="383" y="532" on="1"/>
        <pt x="298" y="532" on="1"/>
        <pt x="177" y="434" on="1"/>
        <pt x="227" y="373" on="1"/>
        <pt x="234" y="379" on="0"/>
        <pt x="259" y="398" on="0"/>
        <pt x="266" y="405" on="1"/>
        <pt x="288" y="428" on="1"/>
        <pt x="287" y="403" on="0"/>
        <pt x="287" y="355" on="1"/>
        <pt x="287" y="181" on="1"/>
      </contour>
    </TTGlyph>
    <TTGlyph name="one_two" xMin="50" yMin="-28" xMax="820" yMax="742">
      <contour>
        <pt x="50" y="-28" on="0"/>
        <pt x="50" y="94" on="1"/>
        <pt x="50" y="620" on="1"/>
        <pt x="50" y="742" on="0"/>
        <pt x="171" y="742" on="1"/>
        <pt x="698" y="742" on="1"/>
        <pt x="820" y="742" on="0"/>
        <pt x="820" y="620" on="1"/>
        <pt x="820" y="94" on="1"/>
        <pt x="820" y="-28" on="0"/>
        <pt x="698" y="-28" on="1"/>
        <pt x="171" y="-28" on="1"/>
      </contour>
      <contour>
        <pt x="672" y="183" on="1"/>
        <pt x="672" y="262" on="1"/>
        <pt x="539" y="262" on="1"/>
        <pt x="539" y="263" on="1"/>
        <pt x="565" y="286" on="1"/>
        <pt x="621" y="335" on="0"/>
        <pt x="665" y="400" on="0"/>
        <pt x="665" y="444" on="1"/>
        <pt x="665" y="486" on="0"/>
        <pt x="601" y="538" on="0"/>
        <pt x="548" y="538" on="1"/>
        <pt x="501" y="538" on="0"/>
        <pt x="444" y="510" on="0"/>
        <pt x="413" y="483" on="1"/>
        <pt x="465" y="422" on="1"/>
        <pt x="508" y="459" on="0"/>
        <pt x="536" y="459" on="1"/>
        <pt x="551" y="459" on="0"/>
        <pt x="572" y="444" on="0"/>
        <pt x="572" y="429" on="1"/>
        <pt x="572" y="410" on="0"/>
        <pt x="545" y="372" on="0"/>
        <pt x="503" y="331" on="1"/>
        <pt x="417" y="246" on="1"/>
        <pt x="417" y="183" on="1"/>
      </contour>
      <contour>
        <pt x="378" y="181" on="1"/>
        <pt x="378" y="532" on="1"/>
        <pt x="293" y="532" on="1"/>
        <pt x="172" y="434" on="1"/>
        <pt x="222" y="373" on="1"/>
        <pt x="229" y="379" on="0"/>
        <pt x="254" y="398" on="0"/>
        <pt x="261" y="405" on="1"/>
        <pt x="283" y="428" on="1"/>
        <pt x="282" y="403" on="0"/>
        <pt x="282" y="355" on="1"/>
        <pt x="282" y="181" on="1"/>
      </contour>
    </TTGlyph>
    <TTGlyph name="one_zero" xMin="50" yMin="-28" xMax="820" yMax="742">
      <contour>
        <pt x="50" y="-28" on="0"/>
        <pt x="50" y="94" on="1"/>
        <pt x="50" y="620" on="1"/>
        <pt x="50" y="742" on="0"/>
        <pt x="171" y="742" on="1"/>
        <pt x="698" y="742" on="1"/>
        <pt x="820" y="742" on="0"/>
        <pt x="820" y="620" on="1"/>
        <pt x="820" y="94" on="1"/>
        <pt x="820" y="-28" on="0"/>
        <pt x="698" y="-28" on="1"/>
        <pt x="171" y="-28" on="1"/>
      </contour>
      <contour>
        <pt x="616" y="178" on="0"/>
        <pt x="675" y="269" on="0"/>
        <pt x="675" y="357" on="1"/>
        <pt x="675" y="444" on="0"/>
        <pt x="612" y="537" on="0"/>
        <pt x="548" y="537" on="1"/>
        <pt x="481" y="537" on="0"/>
        <pt x="422" y="446" on="0"/>
        <pt x="422" y="357" on="1"/>
        <pt x="422" y="178" on="0"/>
        <pt x="548" y="178" on="1"/>
      </contour>
      <contour>
        <pt x="382" y="181" on="1"/>
        <pt x="382" y="532" on="1"/>
        <pt x="298" y="532" on="1"/>
        <pt x="177" y="434" on="1"/>
        <pt x="226" y="374" on="1"/>
        <pt x="234" y="380" on="0"/>
        <pt x="259" y="397" on="0"/>
        <pt x="266" y="405" on="1"/>
        <pt x="278" y="419" on="0"/>
        <pt x="288" y="429" on="1"/>
        <pt x="287" y="403" on="0"/>
        <pt x="287" y="355" on="1"/>
        <pt x="287" y="181" on="1"/>
      </contour>
      <contour>
        <pt x="529" y="252" on="0"/>
        <pt x="515" y="302" on="0"/>
        <pt x="515" y="357" on="1"/>
        <pt x="515" y="412" on="0"/>
        <pt x="529" y="462" on="0"/>
        <pt x="548" y="462" on="1"/>
        <pt x="567" y="462" on="0"/>
        <pt x="580" y="413" on="0"/>
        <pt x="580" y="357" on="1"/>
        <pt x="580" y="301" on="0"/>
        <pt x="567" y="252" on="0"/>
        <pt x="548" y="252" on="1"/>
      </contour>
    </TTGlyph>
    <TTGlyph name="seven" xMin="50" yMin="-28" xMax="820" yMax="742">
      <contour>
        <pt x="50" y="-28" on="0"/>
        <pt x="50" y="94" on="1"/>
        <pt x="50" y="620" on="1"/>
        <pt x="50" y="742" on="0"/>
        <pt x="171" y="742" on="1"/>
        <pt x="698" y="742" on="1"/>
        <pt x="820" y="742" on="0"/>
        <pt x="820" y="620" on="1"/>
        <pt x="820" y="94" on="1"/>
        <pt x="820" y="-28" on="0"/>
        <pt x="698" y="-28" on="1"/>
        <pt x="171" y="-28" on="1"/>
      </contour>
      <contour>
        <pt x="451" y="182" on="1"/>
        <pt x="574" y="476" on="1"/>
        <pt x="574" y="532" on="1"/>
        <pt x="321" y="532" on="1"/>
        <pt x="321" y="454" on="1"/>
        <pt x="473" y="454" on="1"/>
        <pt x="353" y="182" on="1"/>
      </contour>
    </TTGlyph>
    <TTGlyph name="six" xMin="50" yMin="-28" xMax="820" yMax="742">
      <contour>
        <pt x="50" y="-28" on="0"/>
        <pt x="50" y="94" on="1"/>
        <pt x="50" y="620" on="1"/>
        <pt x="50" y="742" on="0"/>
        <pt x="171" y="742" on="1"/>
        <pt x="698" y="742" on="1"/>
        <pt x="820" y="742" on="0"/>
        <pt x="820" y="620" on="1"/>
        <pt x="820" y="94" on="1"/>
        <pt x="820" y="-28" on="0"/>
        <pt x="698" y="-28" on="1"/>
        <pt x="171" y="-28" on="1"/>
      </contour>
      <contour>
        <pt x="490" y="177" on="0"/>
        <pt x="556" y="243" on="0"/>
        <pt x="556" y="302" on="1"/>
        <pt x="556" y="356" on="0"/>
        <pt x="504" y="415" on="0"/>
        <pt x="458" y="415" on="1"/>
        <pt x="410" y="415" on="0"/>
        <pt x="389" y="375" on="1"/>
        <pt x="386" y="375" on="1"/>
        <pt x="388" y="420" on="0"/>
        <pt x="431" y="464" on="0"/>
        <pt x="481" y="464" on="1"/>
        <pt x="502" y="464" on="0"/>
        <pt x="530" y="460" on="0"/>
        <pt x="534" y="459" on="1"/>
        <pt x="534" y="534" on="1"/>
        <pt x="492" y="537" on="0"/>
        <pt x="484" y="537" on="1"/>
        <pt x="378" y="537" on="0"/>
        <pt x="300" y="422" on="0"/>
        <pt x="300" y="331" on="1"/>
        <pt x="300" y="255" on="0"/>
        <pt x="373" y="177" on="0"/>
        <pt x="432" y="177" on="1"/>
      </contour>
      <contour>
        <pt x="413" y="251" on="0"/>
        <pt x="394" y="284" on="0"/>
        <pt x="394" y="304" on="1"/>
        <pt x="394" y="319" on="0"/>
        <pt x="415" y="343" on="0"/>
        <pt x="431" y="343" on="1"/>
        <pt x="448" y="343" on="0"/>
        <pt x="465" y="320" on="0"/>
        <pt x="465" y="300" on="1"/>
        <pt x="465" y="276" on="0"/>
        <pt x="446" y="251" on="0"/>
        <pt x="430" y="251" on="1"/>
      </contour>
    </TTGlyph>
    <TTGlyph name="three" xMin="50" yMin="-28" xMax="820" yMax="742">
      <contour>
        <pt x="50" y="-28" on="0"/>
        <pt x="50" y="94" on="1"/>
        <pt x="50" y="620" on="1"/>
        <pt x="50" y="742" on="0"/>
        <pt x="171" y="742" on="1"/>
        <pt x="698" y="742" on="1"/>
        <pt x="820" y="742" on="0"/>
        <pt x="820" y="620" on="1"/>
        <pt x="820" y="94" on="1"/>
        <pt x="820" y="-28" on="0"/>
        <pt x="698" y="-28" on="1"/>
        <pt x="171" y="-28" on="1"/>
      </contour>
      <contour>
        <pt x="487" y="177" on="0"/>
        <pt x="561" y="236" on="0"/>
        <pt x="561" y="282" on="1"/>
        <pt x="561" y="354" on="0"/>
        <pt x="473" y="365" on="1"/>
        <pt x="473" y="367" on="1"/>
        <pt x="507" y="376" on="0"/>
        <pt x="550" y="421" on="0"/>
        <pt x="550" y="456" on="1"/>
        <pt x="550" y="494" on="0"/>
        <pt x="488" y="537" on="0"/>
        <pt x="434" y="537" on="1"/>
        <pt x="392" y="537" on="0"/>
        <pt x="335" y="519" on="0"/>
        <pt x="310" y="502" on="1"/>
        <pt x="350" y="438" on="1"/>
        <pt x="360" y="446" on="0"/>
        <pt x="398" y="461" on="0"/>
        <pt x="419" y="461" on="1"/>
        <pt x="437" y="461" on="0"/>
        <pt x="458" y="447" on="0"/>
        <pt x="458" y="434" on="1"/>
        <pt x="458" y="397" on="0"/>
        <pt x="386" y="397" on="1"/>
        <pt x="364" y="397" on="1"/>
        <pt x="364" y="326" on="1"/>
        <pt x="386" y="326" on="1"/>
        <pt x="428" y="326" on="0"/>
        <pt x="461" y="307" on="0"/>
        <pt x="461" y="288" on="1"/>
        <pt x="461" y="251" on="0"/>
        <pt x="400" y="251" on="1"/>
        <pt x="357" y="251" on="0"/>
        <pt x="309" y="275" on="1"/>
        <pt x="309" y="195" on="1"/>
        <pt x="335" y="186" on="0"/>
        <pt x="382" y="177" on="0"/>
        <pt x="414" y="177" on="1"/>
      </contour>
    </TTGlyph>
    <TTGlyph name="two" xMin="50" yMin="-28" xMax="820" yMax="742">
      <contour>
        <pt x="50" y="-28" on="0"/>
        <pt x="50" y="94" on="1"/>
        <pt x="50" y="620" on="1"/>
        <pt x="50" y="742" on="0"/>
        <pt x="171" y="742" on="1"/>
        <pt x="698" y="742" on="1"/>
        <pt x="820" y="742" on="0"/>
        <pt x="820" y="620" on="1"/>
        <pt x="820" y="94" on="1"/>
        <pt x="820" y="-28" on="0"/>
        <pt x="698" y="-28" on="1"/>
        <pt x="171" y="-28" on="1"/>
      </contour>
      <contour>
        <pt x="565" y="183" on="1"/>
        <pt x="565" y="262" on="1"/>
        <pt x="432" y="262" on="1"/>
        <pt x="432" y="263" on="1"/>
        <pt x="458" y="286" on="1"/>
        <pt x="514" y="335" on="0"/>
        <pt x="558" y="400" on="0"/>
        <pt x="558" y="444" on="1"/>
        <pt x="558" y="486" on="0"/>
        <pt x="494" y="538" on="0"/>
        <pt x="441" y="538" on="1"/>
        <pt x="394" y="538" on="0"/>
        <pt x="337" y="510" on="0"/>
        <pt x="306" y="483" on="1"/>
        <pt x="358" y="422" on="1"/>
        <pt x="401" y="459" on="0"/>
        <pt x="429" y="459" on="1"/>
        <pt x="444" y="459" on="0"/>
        <pt x="465" y="444" on="0"/>
        <pt x="465" y="429" on="1"/>
        <pt x="465" y="410" on="0"/>
        <pt x="438" y="372" on="0"/>
        <pt x="396" y="331" on="1"/>
        <pt x="310" y="246" on="1"/>
        <pt x="310" y="183" on="1"/>
      </contour>
    </TTGlyph>
    <TTGlyph name="zero" xMin="50" yMin="-28" xMax="820" yMax="742">
      <contour>
        <pt x="50" y="-28" on="0"/>
        <pt x="50" y="94" on="1"/>
        <pt x="50" y="620" on="1"/>
        <pt x="50" y="742" on="0"/>
        <pt x="171" y="742" on="1"/>
        <pt x="698" y="742" on="1"/>
        <pt x="820" y="742" on="0"/>
        <pt x="820" y="620" on="1"/>
        <pt x="820" y="94" on="1"/>
        <pt x="820" y="-28" on="0"/>
        <pt x="698" y="-28" on="1"/>
        <pt x="171" y="-28" on="1"/>
      </contour>
      <contour>
        <pt x="503" y="178" on="0"/>
        <pt x="562" y="269" on="0"/>
        <pt x="562" y="357" on="1"/>
        <pt x="562" y="444" on="0"/>
        <pt x="499" y="537" on="0"/>
        <pt x="435" y="537" on="1"/>
        <pt x="368" y="537" on="0"/>
        <pt x="309" y="446" on="0"/>
        <pt x="309" y="357" on="1"/>
        <pt x="309" y="178" on="0"/>
        <pt x="435" y="178" on="1"/>
      </contour>
      <contour>
        <pt x="417" y="252" on="0"/>
        <pt x="403" y="302" on="0"/>
        <pt x="403" y="357" on="1"/>
        <pt x="403" y="412" on="0"/>
        <pt x="417" y="462" on="0"/>
        <pt x="436" y="462" on="1"/>
        <pt x="455" y="462" on="0"/>
        <pt x="468" y="413" on="0"/>
        <pt x="468" y="357" on="1"/>
        <pt x="468" y="301" on="0"/>
        <pt x="455" y="252" on="0"/>
        <pt x="436" y="252" on="1"/>
      </contour>
    </TTGlyph>
</ttFont>
